<svg xmlns="http://www.w3.org/2000/svg" xmlns:xlink="http://www.w3.org/1999/xlink" width="500" zoomAndPan="magnify" viewBox="0 0 375 374.999991" height="500" preserveAspectRatio="xMidYMid meet" version="1.0"><defs><g/><clipPath id="c3d1207d0c"><path d="M 114 55 L 254 55 L 254 236 L 114 236 Z M 114 55 " clip-rule="nonzero"/></clipPath><clipPath id="41254fb78b"><path d="M 103.992188 70.59375 L 242.164062 49.917969 L 268.402344 225.292969 L 130.230469 245.964844 Z M 103.992188 70.59375 " clip-rule="nonzero"/></clipPath><clipPath id="fea07b0dd8"><path d="M 103.992188 70.59375 L 242.164062 49.917969 L 268.402344 225.292969 L 130.230469 245.964844 Z M 103.992188 70.59375 " clip-rule="nonzero"/></clipPath><clipPath id="c1b4c18a0d"><path d="M 152 121 L 217 121 L 217 214 L 152 214 Z M 152 121 " clip-rule="nonzero"/></clipPath><clipPath id="7c7c5631cb"><path d="M 103.992188 70.59375 L 242.164062 49.917969 L 268.402344 225.292969 L 130.230469 245.964844 Z M 103.992188 70.59375 " clip-rule="nonzero"/></clipPath><clipPath id="a51ce0d9c4"><path d="M 103.992188 70.59375 L 242.164062 49.917969 L 268.402344 225.292969 L 130.230469 245.964844 Z M 103.992188 70.59375 " clip-rule="nonzero"/></clipPath><clipPath id="c3edc96526"><path d="M 62.367188 227.230469 L 315.996094 227.230469 L 315.996094 297 L 62.367188 297 Z M 62.367188 227.230469 " clip-rule="nonzero"/></clipPath><clipPath id="2cfdf9e4ba"><path d="M 97.21875 227.230469 L 280.605469 227.230469 C 299.855469 227.230469 315.457031 242.832031 315.457031 262.082031 C 315.457031 281.328125 299.855469 296.933594 280.605469 296.933594 L 97.21875 296.933594 C 77.972656 296.933594 62.367188 281.328125 62.367188 262.082031 C 62.367188 242.832031 77.972656 227.230469 97.21875 227.230469 Z M 97.21875 227.230469 " clip-rule="nonzero"/></clipPath><clipPath id="00acd8a0f3"><path d="M 74.523438 238.8125 L 195 238.8125 L 195 285.347656 L 74.523438 285.347656 Z M 74.523438 238.8125 " clip-rule="nonzero"/></clipPath><clipPath id="e2627f92a1"><path d="M 97.789062 238.8125 L 171.640625 238.8125 C 184.492188 238.8125 194.910156 249.230469 194.910156 262.082031 C 194.910156 274.929688 184.492188 285.347656 171.640625 285.347656 L 97.789062 285.347656 C 84.941406 285.347656 74.523438 274.929688 74.523438 262.082031 C 74.523438 249.230469 84.941406 238.8125 97.789062 238.8125 Z M 97.789062 238.8125 " clip-rule="nonzero"/></clipPath></defs><g clip-path="url(#c3d1207d0c)"><g clip-path="url(#41254fb78b)"><g clip-path="url(#fea07b0dd8)"><path fill="#283389" d="M 242.058594 97.871094 C 238.324219 85.941406 231.71875 71.445312 224.40625 63.179688 C 221.121094 59.460938 217.550781 56.84375 213.789062 55.925781 C 209.359375 54.84375 205.089844 55.972656 201.222656 60.097656 C 197.574219 63.980469 194.292969 70.929688 191.667969 81.914062 L 161.34375 86.449219 C 155.621094 76.71875 150.445312 71.035156 145.824219 68.386719 C 140.917969 65.574219 136.507812 65.746094 132.585938 68.078125 C 129.261719 70.054688 126.613281 73.601562 124.554688 78.117188 C 119.953125 88.242188 117.882812 104.207031 117.832031 116.75 C 114.648438 124.5 113.441406 133.167969 114.765625 142.011719 L 115.476562 146.765625 C 118.414062 166.402344 133.023438 181.554688 151.191406 186.21875 C 151.144531 189.996094 151.363281 193.652344 151.855469 197.152344 C 153.320312 207.664062 157.199219 216.6875 163.199219 223.382812 C 169.359375 230.253906 177.648438 234.609375 187.757812 235.578125 C 191.3125 235.914062 195.109375 235.824219 199.144531 235.265625 L 199.214844 235.253906 C 203.238281 234.609375 206.894531 233.585938 210.195312 232.21875 C 219.578125 228.332031 226.230469 221.742188 230.109375 213.371094 C 233.886719 205.21875 234.957031 195.453125 233.28125 184.96875 C 232.722656 181.484375 231.867188 177.921875 230.714844 174.324219 C 236.070312 171.054688 240.703125 166.777344 244.386719 161.804688 C 251.710938 151.90625 255.277344 139.21875 253.320312 126.144531 L 252.609375 121.390625 C 251.265625 112.421875 247.496094 104.394531 242.058594 97.871094 Z M 208.203125 66.640625 C 209.398438 65.371094 210.515625 64.972656 211.535156 65.222656 C 213.226562 65.636719 215.179688 67.207031 217.234375 69.53125 C 220.824219 73.59375 224.265625 79.53125 227.195312 85.890625 C 225.273438 84.890625 223.285156 84.019531 221.238281 83.277344 C 221.238281 83.277344 221.242188 83.277344 221.242188 83.277344 C 216.042969 73.042969 210.496094 68.523438 206.875 80.476562 C 205.226562 80.414062 203.570312 80.433594 201.894531 80.542969 C 203.835938 73.457031 205.972656 69.015625 208.203125 66.640625 Z M 133.277344 82.089844 C 134.5625 79.265625 135.96875 77.195312 137.464844 76.300781 C 138.371094 75.761719 139.554688 75.816406 141.066406 76.683594 C 143.890625 78.304688 147.238281 81.921875 151.175781 88.136719 C 149.859375 88.449219 148.566406 88.816406 147.300781 89.234375 C 140.519531 79.246094 136.582031 84.800781 134.582031 95.664062 C 132.417969 97.203125 130.394531 98.910156 128.527344 100.765625 C 129.460938 93.785156 131.019531 87.050781 133.277344 82.089844 Z M 221.421875 209.351562 C 218.554688 215.539062 213.589844 220.433594 206.550781 223.347656 C 203.890625 224.445312 200.960938 225.273438 197.761719 225.789062 C 194.554688 226.230469 191.511719 226.300781 188.644531 226.027344 C 181.0625 225.300781 174.882812 222.074219 170.332031 216.996094 C 165.617188 211.742188 162.539062 204.449219 161.335938 195.804688 C 160.972656 193.210938 160.78125 190.488281 160.773438 187.65625 C 163.84375 187.804688 166.972656 187.652344 170.117188 187.183594 L 187.886719 184.523438 L 189.109375 192.707031 C 187.207031 193.625 185.585938 194.996094 184.359375 196.652344 C 182.394531 199.308594 181.441406 202.71875 181.96875 206.246094 C 182.496094 209.773438 184.402344 212.753906 187.066406 214.71875 C 189.722656 216.6875 193.132812 217.640625 196.660156 217.113281 C 200.1875 216.585938 203.167969 214.679688 205.132812 212.015625 C 207.101562 209.359375 208.054688 205.949219 207.527344 202.421875 C 207 198.894531 205.089844 195.914062 202.429688 193.949219 C 200.773438 192.722656 198.820312 191.890625 196.734375 191.566406 L 195.511719 183.382812 L 212.894531 180.78125 C 216.046875 180.308594 219.078125 179.539062 221.972656 178.5 C 222.792969 181.210938 223.40625 183.867188 223.820312 186.453125 C 225.199219 195.070312 224.390625 202.941406 221.421875 209.351562 Z M 193.40625 195.363281 C 195.882812 194.992188 198.277344 195.664062 200.144531 197.046875 C 202.011719 198.429688 203.351562 200.523438 203.722656 203 C 204.09375 205.476562 203.425781 207.871094 202.046875 209.738281 C 200.664062 211.609375 198.570312 212.949219 196.09375 213.320312 C 193.613281 213.691406 191.21875 213.019531 189.351562 211.636719 C 187.484375 210.261719 186.144531 208.164062 185.773438 205.683594 C 185.402344 203.207031 186.074219 200.8125 187.453125 198.945312 C 188.835938 197.074219 190.929688 195.734375 193.40625 195.363281 Z M 243.8125 127.5625 C 245.375 138.015625 242.515625 148.160156 236.65625 156.089844 C 230.792969 164.015625 221.929688 169.714844 211.476562 171.277344 L 168.695312 177.679688 C 147.785156 180.808594 128.109375 166.257812 124.980469 145.34375 L 124.269531 140.589844 C 122.707031 130.140625 125.566406 119.992188 131.425781 112.066406 C 137.289062 104.140625 146.15625 98.4375 156.605469 96.875 L 199.386719 90.472656 C 220.300781 87.34375 239.972656 101.898438 243.101562 122.808594 Z M 227.214844 125.839844 L 227.734375 129.3125 C 228.875 136.953125 226.789062 144.367188 222.503906 150.160156 C 218.21875 155.957031 211.738281 160.121094 204.097656 161.265625 L 172.828125 165.945312 C 157.539062 168.230469 143.160156 157.59375 140.871094 142.304688 L 140.351562 138.832031 C 139.207031 131.1875 141.296875 123.773438 145.582031 117.984375 C 149.867188 112.1875 156.347656 108.023438 163.992188 106.878906 L 195.261719 102.199219 C 210.546875 99.917969 224.925781 110.554688 227.214844 125.839844 Z M 227.214844 125.839844 " fill-opacity="1" fill-rule="evenodd"/></g></g></g><g clip-path="url(#c1b4c18a0d)"><g clip-path="url(#7c7c5631cb)"><g clip-path="url(#a51ce0d9c4)"><path fill="#1ae5be" d="M 200.144531 197.042969 C 202.011719 198.425781 203.351562 200.519531 203.722656 202.996094 C 204.09375 205.472656 203.421875 207.867188 202.042969 209.734375 C 200.660156 211.605469 198.570312 212.945312 196.089844 213.316406 C 193.613281 213.6875 191.21875 213.015625 189.351562 211.632812 C 187.480469 210.253906 186.144531 208.15625 185.773438 205.679688 C 185.402344 203.203125 186.074219 200.808594 187.453125 198.941406 C 188.832031 197.070312 190.925781 195.730469 193.40625 195.359375 C 195.886719 194.992188 198.28125 195.660156 200.144531 197.042969 Z M 167.570312 128.464844 C 165.890625 127.902344 164.144531 127.796875 162.46875 128.085938 C 160.800781 128.371094 159.207031 129.050781 157.808594 130.074219 C 154.671875 132.367188 152.515625 136.359375 152.816406 141.4375 C 152.847656 141.945312 153.066406 142.375 153.464844 142.691406 C 153.863281 143.007812 154.332031 143.125 154.835938 143.042969 L 155.203125 142.980469 C 156.078125 142.832031 156.691406 142.058594 156.644531 141.179688 C 156.445312 137.539062 157.914062 134.734375 160.0625 133.167969 C 160.984375 132.492188 162.027344 132.042969 163.109375 131.859375 C 164.175781 131.671875 165.292969 131.742188 166.371094 132.101562 C 168.992188 132.972656 171.414062 135.582031 172.578125 140.421875 C 172.789062 141.304688 173.644531 141.875 174.542969 141.722656 L 174.90625 141.664062 C 175.394531 141.582031 175.789062 141.332031 176.0625 140.914062 C 176.339844 140.496094 176.417969 140.039062 176.304688 139.554688 C 174.789062 133.226562 171.351562 129.722656 167.570312 128.464844 Z M 208.429688 122.503906 C 206.796875 121.933594 205.066406 121.75 203.390625 121.964844 C 201.703125 122.179688 200.066406 122.792969 198.625 123.820312 C 195.378906 126.128906 193.117188 130.488281 193.519531 136.984375 C 193.550781 137.484375 193.761719 137.898438 194.148438 138.214844 C 194.535156 138.535156 194.984375 138.660156 195.476562 138.59375 L 195.839844 138.542969 C 196.742188 138.425781 197.394531 137.632812 197.335938 136.722656 C 197.035156 131.761719 198.585938 128.554688 200.839844 126.953125 C 201.761719 126.292969 202.808594 125.902344 203.886719 125.765625 C 204.976562 125.625 206.105469 125.75 207.183594 126.125 C 209.695312 126.996094 211.921875 129.246094 212.796875 132.785156 C 213.007812 133.644531 213.820312 134.199219 214.699219 134.085938 L 215.070312 134.039062 C 215.578125 133.96875 215.984375 133.722656 216.273438 133.300781 C 216.558594 132.882812 216.648438 132.40625 216.527344 131.914062 C 215.332031 126.960938 212.097656 123.773438 208.429688 122.503906 Z M 208.429688 122.503906 " fill-opacity="1" fill-rule="nonzero"/></g></g></g><g clip-path="url(#c3edc96526)"><g clip-path="url(#2cfdf9e4ba)"><path stroke-linecap="butt" transform="matrix(1.074696, 0, 0, 1.074696, 62.368016, 227.228774)" fill="none" stroke-linejoin="miter" d="M 32.42845 0.00157707 L 203.068956 0.00157707 C 220.980993 0.00157707 235.50181 14.51876 235.50181 32.430797 C 235.50181 50.3392 220.980993 64.860017 203.068956 64.860017 L 32.42845 64.860017 C 14.520047 64.860017 -0.000770547 50.3392 -0.000770547 32.430797 C -0.000770547 14.51876 14.520047 0.00157707 32.42845 0.00157707 Z M 32.42845 0.00157707 " stroke="#283389" stroke-width="12.561688" stroke-opacity="1" stroke-miterlimit="4"/></g></g><g clip-path="url(#00acd8a0f3)"><g clip-path="url(#e2627f92a1)"><path fill="#283389" d="M 74.523438 238.8125 L 194.863281 238.8125 L 194.863281 285.347656 L 74.523438 285.347656 Z M 74.523438 238.8125 " fill-opacity="1" fill-rule="nonzero"/></g></g><g fill="#1ae5be" fill-opacity="1"><g transform="translate(88.537768, 271.224484)"><g><path d="M 12.46875 0 L 12.46875 -7 L 4.21875 -7 L 4.21875 0 L 2.265625 0 L 2.265625 -15.5625 L 4.21875 -15.5625 L 4.21875 -8.875 L 12.46875 -8.875 L 12.46875 -15.5625 L 14.4375 -15.5625 L 14.4375 0 Z M 12.46875 0 "/></g></g></g><g fill="#1ae5be" fill-opacity="1"><g transform="translate(106.924705, 271.224484)"><g><path d="M 8.09375 0.265625 C 6.207031 0.265625 4.734375 -0.316406 3.671875 -1.484375 C 2.617188 -2.660156 2.09375 -4.28125 2.09375 -6.34375 L 2.09375 -15.5625 L 4.03125 -15.5625 L 4.03125 -6.46875 C 4.03125 -4.882812 4.375 -3.679688 5.0625 -2.859375 C 5.757812 -2.046875 6.769531 -1.640625 8.09375 -1.640625 C 10.800781 -1.640625 12.15625 -3.25 12.15625 -6.46875 L 12.15625 -15.5625 L 14.125 -15.5625 L 14.125 -6.34375 C 14.125 -4.28125 13.585938 -2.660156 12.515625 -1.484375 C 11.453125 -0.316406 9.976562 0.265625 8.09375 0.265625 Z M 8.09375 0.265625 "/></g></g></g><g fill="#1ae5be" fill-opacity="1"><g transform="translate(124.822522, 271.224484)"><g><path d="M 2.265625 0 L 2.265625 -15.5625 L 4.09375 -15.5625 L 10.203125 -6.34375 L 16.28125 -15.5625 L 18.09375 -15.5625 L 18.09375 0 L 16.140625 0 L 16.140625 -11.890625 L 10.984375 -4.140625 L 9.390625 -4.140625 L 4.21875 -11.921875 L 4.21875 0 Z M 2.265625 0 "/></g></g></g><g fill="#1ae5be" fill-opacity="1"><g transform="translate(146.877881, 271.224484)"><g><path d="M 0.375 0 L 6.78125 -15.5625 L 8.609375 -15.5625 L 15.015625 0 L 12.9375 0 L 11.46875 -3.53125 L 3.890625 -3.53125 L 2.46875 0 Z M 4.640625 -5.359375 L 10.734375 -5.359375 L 7.6875 -12.828125 Z M 4.640625 -5.359375 "/></g></g></g><g fill="#1ae5be" fill-opacity="1"><g transform="translate(163.953082, 271.224484)"><g><path d="M 2.265625 0 L 2.265625 -15.5625 L 4.109375 -15.5625 L 12.71875 -3.375 L 12.71875 -15.5625 L 14.625 -15.5625 L 14.625 0 L 12.8125 0 L 4.203125 -12.1875 L 4.203125 0 Z M 2.265625 0 "/></g></g></g><g fill="#283389" fill-opacity="1"><g transform="translate(214.661302, 271.224484)"><g><path d="M 5.359375 0 L 5.359375 -11.40625 L 0.625 -11.40625 L 0.625 -15.5625 L 14.5625 -15.5625 L 14.5625 -11.40625 L 9.828125 -11.40625 L 9.828125 0 Z M 5.359375 0 "/></g></g></g><g fill="#283389" fill-opacity="1"><g transform="translate(229.846356, 271.224484)"><g><path d="M 1.640625 0 L 1.640625 -15.5625 L 12.3125 -15.5625 L 12.3125 -11.9375 L 6.09375 -11.9375 L 6.09375 -9.671875 L 11.71875 -9.671875 L 11.71875 -6.0625 L 6.09375 -6.0625 L 6.09375 -3.671875 L 12.5625 -3.671875 L 12.5625 0 Z M 1.640625 0 "/></g></g></g><g fill="#283389" fill-opacity="1"><g transform="translate(243.408411, 271.224484)"><g><path d="M 8.921875 0.328125 C 7.304688 0.328125 5.882812 -0.0078125 4.65625 -0.6875 C 3.4375 -1.375 2.476562 -2.328125 1.78125 -3.546875 C 1.09375 -4.765625 0.75 -6.175781 0.75 -7.78125 C 0.75 -9.382812 1.085938 -10.796875 1.765625 -12.015625 C 2.453125 -13.242188 3.40625 -14.195312 4.625 -14.875 C 5.851562 -15.550781 7.269531 -15.890625 8.875 -15.890625 C 10.269531 -15.890625 11.53125 -15.625 12.65625 -15.09375 C 13.78125 -14.5625 14.722656 -13.8125 15.484375 -12.84375 C 16.242188 -11.882812 16.757812 -10.742188 17.03125 -9.421875 L 12.5 -9.421875 C 12.257812 -10.117188 11.828125 -10.675781 11.203125 -11.09375 C 10.578125 -11.519531 9.859375 -11.734375 9.046875 -11.734375 C 8.316406 -11.734375 7.671875 -11.566406 7.109375 -11.234375 C 6.546875 -10.898438 6.101562 -10.4375 5.78125 -9.84375 C 5.46875 -9.25 5.3125 -8.5625 5.3125 -7.78125 C 5.3125 -7.007812 5.46875 -6.320312 5.78125 -5.71875 C 6.09375 -5.125 6.523438 -4.660156 7.078125 -4.328125 C 7.640625 -3.992188 8.28125 -3.828125 9 -3.828125 C 9.84375 -3.828125 10.578125 -4.046875 11.203125 -4.484375 C 11.828125 -4.921875 12.28125 -5.5 12.5625 -6.21875 L 17.125 -6.21875 C 16.894531 -4.90625 16.398438 -3.753906 15.640625 -2.765625 C 14.890625 -1.785156 13.941406 -1.023438 12.796875 -0.484375 C 11.648438 0.0546875 10.359375 0.328125 8.921875 0.328125 Z M 8.921875 0.328125 "/></g></g></g><g fill="#283389" fill-opacity="1"><g transform="translate(261.239176, 271.224484)"><g><path d="M 10.9375 0 L 10.9375 -5.84375 L 6.140625 -5.84375 L 6.140625 0 L 1.640625 0 L 1.640625 -15.5625 L 6.140625 -15.5625 L 6.140625 -9.984375 L 10.9375 -9.984375 L 10.9375 -15.5625 L 15.4375 -15.5625 L 15.4375 0 Z M 10.9375 0 "/></g></g></g><g fill="#283389" fill-opacity="1"><g transform="translate(100.25872, 320.052771)"><g><path d="M 0.40625 -9.21875 L 0.40625 -10.3125 C 0.40625 -10.519531 0.507812 -10.625 0.71875 -10.625 L 8 -10.625 C 8.09375 -10.625 8.164062 -10.59375 8.21875 -10.53125 C 8.269531 -10.476562 8.296875 -10.40625 8.296875 -10.3125 L 8.296875 -9.21875 C 8.296875 -9.007812 8.195312 -8.90625 8 -8.90625 L 5.34375 -8.90625 L 5.34375 -0.296875 C 5.34375 -0.0976562 5.234375 0 5.015625 0 L 3.671875 0 C 3.460938 0 3.359375 -0.0976562 3.359375 -0.296875 L 3.359375 -8.90625 L 0.71875 -8.90625 C 0.625 -8.90625 0.546875 -8.929688 0.484375 -8.984375 C 0.429688 -9.035156 0.40625 -9.113281 0.40625 -9.21875 Z M 0.40625 -9.21875 "/></g></g></g><g fill="#283389" fill-opacity="1"><g transform="translate(116.56773, 320.052771)"><g><path d="M 8.96875 -1.875 C 9.09375 -1.875 9.191406 -1.835938 9.265625 -1.765625 C 9.347656 -1.703125 9.390625 -1.609375 9.390625 -1.484375 L 9.390625 -0.3125 C 9.390625 -0.21875 9.359375 -0.140625 9.296875 -0.078125 C 9.242188 -0.0234375 9.164062 0 9.0625 0 L 1.578125 0 C 1.367188 0 1.265625 -0.101562 1.265625 -0.3125 L 1.265625 -10.3125 C 1.265625 -10.519531 1.367188 -10.625 1.578125 -10.625 L 8.921875 -10.625 C 9.023438 -10.625 9.101562 -10.59375 9.15625 -10.53125 C 9.207031 -10.476562 9.234375 -10.40625 9.234375 -10.3125 L 9.234375 -9.078125 C 9.234375 -8.859375 9.128906 -8.75 8.921875 -8.75 L 3.25 -8.75 L 3.25 -5.828125 L 7.6875 -5.828125 C 7.800781 -5.828125 7.890625 -5.796875 7.953125 -5.734375 C 8.023438 -5.679688 8.0625 -5.597656 8.0625 -5.484375 L 8.0625 -4.328125 C 8.0625 -4.234375 8.023438 -4.15625 7.953125 -4.09375 C 7.890625 -4.039062 7.800781 -4.015625 7.6875 -4.015625 L 3.25 -4.015625 L 3.25 -1.875 Z M 8.96875 -1.875 "/></g></g></g><g fill="#283389" fill-opacity="1"><g transform="translate(134.261549, 320.052771)"><g><path d="M 8.296875 -2.546875 C 8.378906 -2.617188 8.46875 -2.648438 8.5625 -2.640625 C 8.65625 -2.640625 8.722656 -2.609375 8.765625 -2.546875 L 9.5625 -1.328125 C 9.601562 -1.273438 9.609375 -1.207031 9.578125 -1.125 C 9.546875 -1.039062 9.492188 -0.972656 9.421875 -0.921875 C 9.140625 -0.703125 8.816406 -0.507812 8.453125 -0.34375 C 8.085938 -0.1875 7.710938 -0.0625 7.328125 0.03125 C 6.941406 0.125 6.566406 0.171875 6.203125 0.171875 C 5.578125 0.171875 4.984375 0.0820312 4.421875 -0.09375 C 3.867188 -0.28125 3.359375 -0.535156 2.890625 -0.859375 C 2.429688 -1.191406 2.03125 -1.585938 1.6875 -2.046875 C 1.351562 -2.503906 1.09375 -3.003906 0.90625 -3.546875 C 0.71875 -4.097656 0.625 -4.679688 0.625 -5.296875 C 0.625 -5.921875 0.71875 -6.503906 0.90625 -7.046875 C 1.09375 -7.597656 1.351562 -8.101562 1.6875 -8.5625 C 2.03125 -9.019531 2.429688 -9.414062 2.890625 -9.75 C 3.359375 -10.082031 3.867188 -10.335938 4.421875 -10.515625 C 4.984375 -10.691406 5.578125 -10.78125 6.203125 -10.78125 C 6.554688 -10.78125 6.925781 -10.734375 7.3125 -10.640625 C 7.707031 -10.554688 8.09375 -10.429688 8.46875 -10.265625 C 8.84375 -10.109375 9.171875 -9.910156 9.453125 -9.671875 C 9.546875 -9.609375 9.597656 -9.539062 9.609375 -9.46875 C 9.617188 -9.394531 9.601562 -9.328125 9.5625 -9.265625 L 8.765625 -8.0625 C 8.722656 -8 8.660156 -7.960938 8.578125 -7.953125 C 8.492188 -7.941406 8.40625 -7.972656 8.3125 -8.046875 C 8.019531 -8.304688 7.679688 -8.5 7.296875 -8.625 C 6.921875 -8.757812 6.554688 -8.828125 6.203125 -8.828125 C 5.703125 -8.828125 5.234375 -8.734375 4.796875 -8.546875 C 4.359375 -8.367188 3.972656 -8.117188 3.640625 -7.796875 C 3.316406 -7.472656 3.0625 -7.097656 2.875 -6.671875 C 2.695312 -6.242188 2.609375 -5.785156 2.609375 -5.296875 C 2.609375 -4.804688 2.695312 -4.347656 2.875 -3.921875 C 3.0625 -3.503906 3.320312 -3.132812 3.65625 -2.8125 C 3.988281 -2.5 4.367188 -2.253906 4.796875 -2.078125 C 5.234375 -1.898438 5.703125 -1.8125 6.203125 -1.8125 C 6.546875 -1.8125 6.90625 -1.875 7.28125 -2 C 7.65625 -2.132812 7.992188 -2.316406 8.296875 -2.546875 Z M 8.296875 -2.546875 "/></g></g></g><g fill="#283389" fill-opacity="1"><g transform="translate(152.158199, 320.052771)"><g><path d="M 10.265625 -10.640625 C 10.429688 -10.640625 10.515625 -10.5625 10.515625 -10.40625 L 10.515625 -0.21875 C 10.515625 -0.0703125 10.429688 0 10.265625 0 L 8.765625 0 C 8.609375 0 8.53125 -0.0703125 8.53125 -0.21875 L 8.53125 -3.375 L 3.25 -3.375 L 3.25 -0.21875 C 3.25 -0.0703125 3.171875 0 3.015625 0 L 1.5 0 C 1.34375 0 1.265625 -0.0703125 1.265625 -0.21875 L 1.265625 -10.40625 C 1.265625 -10.5625 1.34375 -10.640625 1.5 -10.640625 L 3.015625 -10.640625 C 3.171875 -10.640625 3.25 -10.5625 3.25 -10.40625 L 3.25 -5.109375 L 8.53125 -5.109375 L 8.53125 -10.40625 C 8.53125 -10.5625 8.609375 -10.640625 8.765625 -10.640625 Z M 10.265625 -10.640625 "/></g></g></g><g fill="#283389" fill-opacity="1"><g transform="translate(171.523591, 320.052771)"><g><path d="M 10.5 -10.640625 C 10.65625 -10.640625 10.734375 -10.5625 10.734375 -10.40625 L 10.734375 -0.1875 C 10.734375 -0.0820312 10.707031 -0.00390625 10.65625 0.046875 C 10.601562 0.109375 10.535156 0.140625 10.453125 0.140625 L 10.4375 0.140625 C 10.351562 0.140625 10.28125 0.113281 10.21875 0.0625 C 10.15625 0.0078125 10.085938 -0.046875 10.015625 -0.109375 L 3.25 -6.53125 L 3.25 -0.21875 C 3.25 -0.0703125 3.171875 0 3.015625 0 L 1.5 0 C 1.34375 0 1.265625 -0.0703125 1.265625 -0.21875 L 1.265625 -10.453125 C 1.265625 -10.546875 1.285156 -10.617188 1.328125 -10.671875 C 1.378906 -10.734375 1.445312 -10.765625 1.53125 -10.765625 L 1.546875 -10.765625 C 1.628906 -10.765625 1.695312 -10.738281 1.75 -10.6875 C 1.800781 -10.632812 1.863281 -10.578125 1.9375 -10.515625 L 8.765625 -4.0625 L 8.765625 -10.40625 C 8.765625 -10.5625 8.835938 -10.640625 8.984375 -10.640625 Z M 10.5 -10.640625 "/></g></g></g><g fill="#283389" fill-opacity="1"><g transform="translate(191.112791, 320.052771)"><g><path d="M 0.625 -5.296875 C 0.625 -5.910156 0.710938 -6.492188 0.890625 -7.046875 C 1.078125 -7.597656 1.335938 -8.097656 1.671875 -8.546875 C 2.015625 -9.003906 2.410156 -9.398438 2.859375 -9.734375 C 3.316406 -10.078125 3.820312 -10.335938 4.375 -10.515625 C 4.9375 -10.691406 5.523438 -10.78125 6.140625 -10.78125 C 6.753906 -10.78125 7.335938 -10.691406 7.890625 -10.515625 C 8.453125 -10.335938 8.960938 -10.078125 9.421875 -9.734375 C 9.878906 -9.398438 10.273438 -9.003906 10.609375 -8.546875 C 10.941406 -8.097656 11.195312 -7.597656 11.375 -7.046875 C 11.5625 -6.492188 11.65625 -5.910156 11.65625 -5.296875 C 11.65625 -4.679688 11.5625 -4.097656 11.375 -3.546875 C 11.195312 -2.992188 10.941406 -2.488281 10.609375 -2.03125 C 10.273438 -1.582031 9.878906 -1.191406 9.421875 -0.859375 C 8.960938 -0.535156 8.453125 -0.28125 7.890625 -0.09375 C 7.335938 0.0820312 6.753906 0.171875 6.140625 0.171875 C 5.523438 0.171875 4.9375 0.0820312 4.375 -0.09375 C 3.820312 -0.28125 3.316406 -0.535156 2.859375 -0.859375 C 2.410156 -1.191406 2.015625 -1.582031 1.671875 -2.03125 C 1.335938 -2.488281 1.078125 -2.992188 0.890625 -3.546875 C 0.710938 -4.097656 0.625 -4.679688 0.625 -5.296875 Z M 2.609375 -5.296875 C 2.609375 -4.796875 2.695312 -4.332031 2.875 -3.90625 C 3.050781 -3.488281 3.300781 -3.125 3.625 -2.8125 C 3.945312 -2.5 4.320312 -2.253906 4.75 -2.078125 C 5.1875 -1.898438 5.648438 -1.8125 6.140625 -1.8125 C 6.640625 -1.8125 7.101562 -1.898438 7.53125 -2.078125 C 7.957031 -2.253906 8.332031 -2.5 8.65625 -2.8125 C 8.976562 -3.125 9.226562 -3.488281 9.40625 -3.90625 C 9.59375 -4.332031 9.6875 -4.796875 9.6875 -5.296875 C 9.6875 -5.796875 9.59375 -6.257812 9.40625 -6.6875 C 9.226562 -7.113281 8.976562 -7.484375 8.65625 -7.796875 C 8.332031 -8.117188 7.957031 -8.367188 7.53125 -8.546875 C 7.101562 -8.734375 6.640625 -8.828125 6.140625 -8.828125 C 5.648438 -8.828125 5.1875 -8.734375 4.75 -8.546875 C 4.320312 -8.367188 3.945312 -8.117188 3.625 -7.796875 C 3.300781 -7.484375 3.050781 -7.113281 2.875 -6.6875 C 2.695312 -6.257812 2.609375 -5.796875 2.609375 -5.296875 Z M 2.609375 -5.296875 "/></g></g></g><g fill="#283389" fill-opacity="1"><g transform="translate(210.988736, 320.052771)"><g><path d="M 8.046875 -1.734375 C 8.203125 -1.734375 8.28125 -1.65625 8.28125 -1.5 L 8.28125 -0.234375 C 8.28125 -0.078125 8.203125 0 8.046875 0 L 1.5 0 C 1.34375 0 1.265625 -0.078125 1.265625 -0.234375 L 1.265625 -10.40625 C 1.265625 -10.5625 1.34375 -10.640625 1.5 -10.640625 L 3.015625 -10.640625 C 3.171875 -10.640625 3.25 -10.5625 3.25 -10.40625 L 3.25 -1.734375 Z M 8.046875 -1.734375 "/></g></g></g><g fill="#283389" fill-opacity="1"><g transform="translate(227.129891, 320.052771)"><g><path d="M 0.625 -5.296875 C 0.625 -5.910156 0.710938 -6.492188 0.890625 -7.046875 C 1.078125 -7.597656 1.335938 -8.097656 1.671875 -8.546875 C 2.015625 -9.003906 2.410156 -9.398438 2.859375 -9.734375 C 3.316406 -10.078125 3.820312 -10.335938 4.375 -10.515625 C 4.9375 -10.691406 5.523438 -10.78125 6.140625 -10.78125 C 6.753906 -10.78125 7.335938 -10.691406 7.890625 -10.515625 C 8.453125 -10.335938 8.960938 -10.078125 9.421875 -9.734375 C 9.878906 -9.398438 10.273438 -9.003906 10.609375 -8.546875 C 10.941406 -8.097656 11.195312 -7.597656 11.375 -7.046875 C 11.5625 -6.492188 11.65625 -5.910156 11.65625 -5.296875 C 11.65625 -4.679688 11.5625 -4.097656 11.375 -3.546875 C 11.195312 -2.992188 10.941406 -2.488281 10.609375 -2.03125 C 10.273438 -1.582031 9.878906 -1.191406 9.421875 -0.859375 C 8.960938 -0.535156 8.453125 -0.28125 7.890625 -0.09375 C 7.335938 0.0820312 6.753906 0.171875 6.140625 0.171875 C 5.523438 0.171875 4.9375 0.0820312 4.375 -0.09375 C 3.820312 -0.28125 3.316406 -0.535156 2.859375 -0.859375 C 2.410156 -1.191406 2.015625 -1.582031 1.671875 -2.03125 C 1.335938 -2.488281 1.078125 -2.992188 0.890625 -3.546875 C 0.710938 -4.097656 0.625 -4.679688 0.625 -5.296875 Z M 2.609375 -5.296875 C 2.609375 -4.796875 2.695312 -4.332031 2.875 -3.90625 C 3.050781 -3.488281 3.300781 -3.125 3.625 -2.8125 C 3.945312 -2.5 4.320312 -2.253906 4.75 -2.078125 C 5.1875 -1.898438 5.648438 -1.8125 6.140625 -1.8125 C 6.640625 -1.8125 7.101562 -1.898438 7.53125 -2.078125 C 7.957031 -2.253906 8.332031 -2.5 8.65625 -2.8125 C 8.976562 -3.125 9.226562 -3.488281 9.40625 -3.90625 C 9.59375 -4.332031 9.6875 -4.796875 9.6875 -5.296875 C 9.6875 -5.796875 9.59375 -6.257812 9.40625 -6.6875 C 9.226562 -7.113281 8.976562 -7.484375 8.65625 -7.796875 C 8.332031 -8.117188 7.957031 -8.367188 7.53125 -8.546875 C 7.101562 -8.734375 6.640625 -8.828125 6.140625 -8.828125 C 5.648438 -8.828125 5.1875 -8.734375 4.75 -8.546875 C 4.320312 -8.367188 3.945312 -8.117188 3.625 -7.796875 C 3.300781 -7.484375 3.050781 -7.113281 2.875 -6.6875 C 2.695312 -6.257812 2.609375 -5.796875 2.609375 -5.296875 Z M 2.609375 -5.296875 "/></g></g></g><g fill="#283389" fill-opacity="1"><g transform="translate(247.005829, 320.052771)"><g><path d="M 9.609375 -5.40625 C 9.765625 -5.40625 9.84375 -5.328125 9.84375 -5.171875 L 9.84375 -1.171875 C 9.84375 -1.109375 9.828125 -1.046875 9.796875 -0.984375 C 9.765625 -0.921875 9.722656 -0.867188 9.671875 -0.828125 C 9.472656 -0.691406 9.234375 -0.5625 8.953125 -0.4375 C 8.679688 -0.320312 8.390625 -0.21875 8.078125 -0.125 C 7.765625 -0.03125 7.445312 0.0390625 7.125 0.09375 C 6.800781 0.144531 6.492188 0.171875 6.203125 0.171875 C 5.578125 0.171875 4.984375 0.0820312 4.421875 -0.09375 C 3.867188 -0.28125 3.359375 -0.535156 2.890625 -0.859375 C 2.429688 -1.191406 2.03125 -1.585938 1.6875 -2.046875 C 1.351562 -2.503906 1.09375 -3.003906 0.90625 -3.546875 C 0.71875 -4.097656 0.625 -4.6875 0.625 -5.3125 C 0.625 -5.925781 0.71875 -6.507812 0.90625 -7.0625 C 1.09375 -7.613281 1.351562 -8.113281 1.6875 -8.5625 C 2.03125 -9.019531 2.429688 -9.414062 2.890625 -9.75 C 3.347656 -10.082031 3.859375 -10.335938 4.421875 -10.515625 C 4.984375 -10.691406 5.570312 -10.78125 6.1875 -10.78125 C 6.550781 -10.78125 6.925781 -10.738281 7.3125 -10.65625 C 7.707031 -10.582031 8.09375 -10.460938 8.46875 -10.296875 C 8.84375 -10.140625 9.171875 -9.941406 9.453125 -9.703125 C 9.523438 -9.648438 9.566406 -9.582031 9.578125 -9.5 C 9.585938 -9.414062 9.570312 -9.34375 9.53125 -9.28125 L 8.765625 -8.109375 C 8.710938 -8.035156 8.644531 -7.992188 8.5625 -7.984375 C 8.476562 -7.972656 8.398438 -8 8.328125 -8.0625 C 8.117188 -8.25 7.890625 -8.394531 7.640625 -8.5 C 7.398438 -8.613281 7.15625 -8.695312 6.90625 -8.75 C 6.65625 -8.800781 6.421875 -8.828125 6.203125 -8.828125 C 5.691406 -8.828125 5.21875 -8.738281 4.78125 -8.5625 C 4.351562 -8.382812 3.972656 -8.132812 3.640625 -7.8125 C 3.316406 -7.488281 3.0625 -7.113281 2.875 -6.6875 C 2.695312 -6.257812 2.609375 -5.800781 2.609375 -5.3125 C 2.609375 -4.8125 2.695312 -4.34375 2.875 -3.90625 C 3.050781 -3.476562 3.296875 -3.097656 3.609375 -2.765625 C 3.929688 -2.441406 4.3125 -2.1875 4.75 -2 C 5.195312 -1.8125 5.679688 -1.71875 6.203125 -1.71875 C 6.378906 -1.71875 6.578125 -1.738281 6.796875 -1.78125 C 7.015625 -1.832031 7.226562 -1.894531 7.4375 -1.96875 C 7.644531 -2.050781 7.820312 -2.144531 7.96875 -2.25 L 7.96875 -3.75 L 6.15625 -3.75 C 6 -3.75 5.921875 -3.828125 5.921875 -3.984375 L 5.921875 -5.171875 C 5.921875 -5.328125 6 -5.40625 6.15625 -5.40625 Z M 9.609375 -5.40625 "/></g></g></g><g fill="#283389" fill-opacity="1"><g transform="translate(265.364086, 320.052771)"><g><path d="M 8.9375 -10.640625 C 9.039062 -10.640625 9.113281 -10.601562 9.15625 -10.53125 C 9.195312 -10.46875 9.191406 -10.378906 9.140625 -10.265625 L 5.65625 -4.203125 L 5.65625 -0.3125 C 5.65625 -0.101562 5.554688 0 5.359375 0 L 4 0 C 3.789062 0 3.6875 -0.101562 3.6875 -0.3125 L 3.6875 -4.21875 L 0.203125 -10.265625 C 0.160156 -10.390625 0.160156 -10.484375 0.203125 -10.546875 C 0.242188 -10.609375 0.316406 -10.640625 0.421875 -10.640625 L 2.015625 -10.640625 C 2.085938 -10.640625 2.15625 -10.613281 2.21875 -10.5625 C 2.289062 -10.507812 2.347656 -10.445312 2.390625 -10.375 L 4.671875 -6.21875 L 6.96875 -10.375 C 7.0625 -10.550781 7.1875 -10.640625 7.34375 -10.640625 Z M 8.9375 -10.640625 "/></g></g></g></svg>